<svg width="392" height="292" viewBox="0 0 392 292" fill="none" xmlns="http://www.w3.org/2000/svg">
<g clip-path="url(#clip0_2494_478)">
<path fill-rule="evenodd" clip-rule="evenodd" d="M106.035 222.631L117.604 249.796L129.174 222.631H133.596L117.604 260.184L101.604 222.631H106.035ZM141.638 222.657V258.007H137.554V222.657H141.638ZM152.887 222.657V253.931H172.684V258.007H148.803V222.657H152.887ZM181.216 222.657V253.931H201.013V258.007H177.132V222.657H181.216ZM202.245 258.007L220.372 220.454L238.49 258.007H233.992L229.266 248.268H211.469L206.769 258.007H202.245ZM227.317 244.184L220.372 229.821L213.427 244.184H227.317ZM257.95 238.277H276.346V240.302C276.346 245.382 274.549 249.72 270.954 253.306C267.359 256.901 263.03 258.699 257.95 258.699C252.878 258.699 248.541 256.901 244.946 253.306C241.351 249.72 239.553 245.382 239.553 240.302C239.553 235.23 241.351 230.893 244.946 227.298C248.541 223.712 252.878 221.914 257.95 221.914C260.372 221.914 262.71 222.378 264.946 223.323C267.19 224.243 269.173 225.56 270.903 227.273L268.034 230.142C266.684 228.808 265.14 227.787 263.393 227.079C261.671 226.353 259.865 225.99 257.95 225.99C253.992 225.99 250.625 227.391 247.84 230.192C245.039 232.977 243.638 236.353 243.638 240.302C243.638 244.26 245.039 247.635 247.84 250.42C250.625 253.222 253.992 254.622 257.95 254.622C261.908 254.622 265.275 253.222 268.06 250.42C270.321 248.175 271.671 245.492 272.118 242.353H257.95V238.277ZM302.751 226.732H285.367V236.496H301.013V240.58H285.367V253.956H302.751V258.007H281.291V222.657H302.751V226.732Z" fill="#22A42D"/>
<path d="M188.44 0.000862083C219.728 0.166562 245.325 24.1765 248.096 54.713C204.093 75.3687 191.112 127.005 137.008 92.0828C131.179 82.753 127.835 71.7164 127.898 59.9049C128.074 26.6504 155.185 -0.175238 188.44 0.000862083Z" fill="url(#paint0_linear_2494_478)"/>
<path fill-rule="evenodd" clip-rule="evenodd" d="M185.276 115.586C234.851 122.463 247.576 49.024 293.696 80.2064C254.764 69.1337 235.07 125.146 185.276 115.586Z" fill="#009EE0"/>
<path fill-rule="evenodd" clip-rule="evenodd" d="M155.447 104.328C153.522 103.377 152.23 97.0306 152.72 89.4167C153.28 87.7755 154.239 86.2605 155.598 84.8673C155.989 84.7607 156.37 84.6418 156.743 84.5096C157.451 84.8444 158.267 85.0393 159.134 85.0531C160.316 85.072 161.407 84.7501 162.276 84.1912C163.168 85.8477 164.993 86.9987 167.116 87.0326C170.157 87.0811 172.659 84.8178 172.705 81.98C172.75 79.1413 170.321 76.7992 167.28 76.7507C166.875 76.7447 166.479 76.779 166.097 76.8508C167.705 76.0842 168.817 74.534 168.846 72.7322C168.887 70.1296 166.661 67.9814 163.873 67.9369C163.115 67.9248 162.393 68.0715 161.743 68.3401C161.41 68.0174 161.053 67.71 160.675 67.418C160.649 65.7832 159.234 64.4481 157.471 64.42C156.793 64.4091 156.158 64.5949 155.631 64.9179C155.402 64.8522 155.172 64.7899 154.939 64.7337C155.056 64.301 155.123 63.8491 155.13 63.384C155.182 60.1432 152.408 57.4703 148.935 57.4149C145.465 57.3595 142.608 59.9425 142.556 63.1833C142.543 63.9964 142.708 64.7738 143.018 65.4827C142.724 65.1282 142.268 64.8953 141.752 64.8871C140.855 64.8728 140.115 65.5422 140.102 66.3797C140.095 66.8054 140.279 67.194 140.578 67.4751L140.387 67.6303C139.852 67.3192 139.222 67.1343 138.548 67.1235C136.557 67.0918 134.919 68.5741 134.889 70.4336C134.874 71.3865 135.286 72.2553 135.959 72.8781C135.648 72.8294 135.326 72.7989 134.998 72.7937C131.847 72.7434 129.259 74.8507 129.217 77.497C129.175 80.1442 131.694 82.3338 134.845 82.3841C135.351 82.3921 135.844 82.3441 136.313 82.2484C136.525 84.3985 138.65 86.1114 141.268 86.1532C142.457 86.1722 143.553 85.8434 144.425 85.2793C146.065 85.7462 147.117 86.9811 147.753 88.7515C150.135 96.9648 148.644 101.076 147.108 105.139L155.447 104.328ZM151.619 85.4745C151.449 86.3235 151.371 87.1915 150.573 87.4507C148.831 87.6214 148.017 86.6579 147.572 85.194C148.539 85.3703 149.545 85.4712 150.579 85.4877C150.929 85.4927 151.274 85.4883 151.619 85.4745Z" fill="white"/>
<path fill-rule="evenodd" clip-rule="evenodd" d="M174.453 112.512C173.082 111.835 172.161 107.317 172.511 101.895C172.909 100.727 173.592 99.6479 174.56 98.6559C174.838 98.58 175.11 98.4953 175.375 98.4012C175.88 98.6396 176.46 98.7784 177.078 98.7882C177.919 98.8017 178.696 98.5725 179.315 98.1745C179.95 99.354 181.25 100.174 182.761 100.198C184.926 100.232 186.708 98.6206 186.74 96.6C186.773 94.5788 185.043 92.9112 182.878 92.8767C182.59 92.8717 182.307 92.8968 182.035 92.9479C183.18 92.4021 183.972 91.2983 183.993 90.0154C184.022 88.1622 182.437 86.6326 180.452 86.601C179.912 86.592 179.398 86.6968 178.936 86.8881C178.698 86.6583 178.444 86.4394 178.175 86.2315C178.156 85.0675 177.149 84.1168 175.894 84.0968C175.411 84.0888 174.959 84.2214 174.584 84.4514C174.421 84.4045 174.256 84.3602 174.091 84.3202C174.174 84.0121 174.221 83.6903 174.227 83.3592C174.264 81.0516 172.288 79.1484 169.816 79.109C167.345 79.0696 165.31 80.9087 165.274 83.2163C165.265 83.7952 165.382 84.3487 165.602 84.8535C165.393 84.6011 165.069 84.4353 164.701 84.4294C164.063 84.4192 163.536 84.8958 163.526 85.4922C163.521 85.7953 163.652 86.072 163.865 86.2721L163.729 86.3827C163.348 86.1612 162.899 86.0295 162.419 86.0218C161.002 85.9992 159.836 87.0546 159.815 88.3787C159.804 89.0572 160.097 89.6758 160.576 90.1193C160.355 90.0846 160.125 90.0629 159.892 90.0592C157.648 90.0234 155.806 91.5238 155.776 93.408C155.746 95.2929 157.54 96.852 159.783 96.8878C160.143 96.8938 160.494 96.8593 160.829 96.7912C160.979 98.3221 162.493 99.5418 164.356 99.5715C165.203 99.585 165.984 99.3509 166.604 98.9492C167.772 99.2817 168.521 100.161 168.974 101.422C170.67 107.27 169.609 110.197 168.515 113.09L174.453 112.512ZM171.727 99.0883C171.606 99.6928 171.55 100.311 170.982 100.495C169.742 100.617 169.162 99.9309 168.845 98.8885C169.534 99.014 170.25 99.0859 170.986 99.0976C171.235 99.1016 171.481 99.0977 171.727 99.0883Z" fill="white"/>
<path fill-rule="evenodd" clip-rule="evenodd" d="M196.153 103.504C194.297 102.588 193.051 96.4713 193.524 89.1334C194.064 87.5517 194.988 86.0917 196.298 84.749C196.674 84.6463 197.042 84.5316 197.401 84.4042C198.084 84.7269 198.87 84.9148 199.705 84.9281C200.845 84.9463 201.896 84.6361 202.733 84.0974C203.594 85.6938 205.352 86.8032 207.398 86.8358C210.328 86.8826 212.741 84.7012 212.784 81.9663C212.828 79.2306 210.487 76.9734 207.556 76.9267C207.166 76.9207 206.784 76.954 206.416 77.0231C207.966 76.2843 209.037 74.7903 209.065 73.0539C209.105 70.5456 206.96 68.4753 204.273 68.4324C203.542 68.4208 202.846 68.5622 202.22 68.8211C201.899 68.51 201.555 68.2138 201.19 67.9324C201.166 66.3569 199.802 65.0701 198.103 65.043C197.449 65.0326 196.838 65.2116 196.33 65.5229C196.109 65.4595 195.887 65.3995 195.663 65.3454C195.775 64.9283 195.84 64.4928 195.847 64.0446C195.897 60.9213 193.223 58.3453 189.877 58.2919C186.532 58.2385 183.778 60.7279 183.729 63.8512C183.716 64.6348 183.875 65.384 184.174 66.0672C183.891 65.7256 183.451 65.5011 182.954 65.4932C182.09 65.4794 181.376 66.1245 181.364 66.9317C181.357 67.342 181.534 67.7165 181.822 67.9874L181.638 68.137C181.122 67.8372 180.515 67.6589 179.866 67.6485C177.947 67.6179 176.369 69.0465 176.34 70.8386C176.325 71.7569 176.722 72.5942 177.371 73.1945C177.071 73.1476 176.76 73.1182 176.444 73.1132C173.408 73.0647 170.914 75.0955 170.873 77.6459C170.832 80.1971 173.26 82.3074 176.297 82.3558C176.785 82.3638 177.26 82.3172 177.712 82.225C177.916 84.2972 179.965 85.948 182.487 85.9883C183.633 86.0065 184.69 85.6897 185.529 85.146C187.111 85.596 188.124 86.7861 188.737 88.4924C191.032 96.4079 189.596 100.37 188.115 104.286L196.153 103.504ZM192.463 85.3342C192.299 86.1524 192.224 86.9889 191.455 87.2387C189.776 87.4033 188.991 86.4747 188.563 85.0638C189.495 85.2337 190.464 85.3309 191.461 85.3468C191.798 85.3518 192.131 85.3474 192.463 85.3342Z" fill="white"/>
<path fill-rule="evenodd" clip-rule="evenodd" d="M229.571 82.6769C228.545 82.1704 227.856 78.7891 228.118 74.7324C228.416 73.858 228.927 73.0508 229.651 72.3085C229.859 72.2518 230.062 72.1884 230.261 72.1179C230.638 72.2963 231.073 72.4002 231.535 72.4076C232.165 72.4176 232.746 72.2461 233.209 71.9483C233.684 72.8309 234.657 73.4442 235.788 73.4622C237.408 73.4881 238.741 72.2821 238.765 70.7702C238.789 69.2578 237.495 68.0099 235.875 67.9841C235.659 67.9801 235.448 67.9992 235.245 68.0374C236.101 67.629 236.694 66.803 236.709 65.843C236.731 64.4564 235.545 63.3118 234.06 63.2881C233.656 63.2821 233.271 63.3599 232.925 63.503C232.748 63.331 232.557 63.1673 232.356 63.0117C232.342 62.1407 231.588 61.4293 230.649 61.4144C230.287 61.4084 229.949 61.5076 229.669 61.6797C229.547 61.6446 229.424 61.6115 229.3 61.5815C229.362 61.351 229.398 61.1102 229.402 60.8624C229.429 59.1357 227.951 57.7116 226.101 57.6821C224.252 57.6526 222.73 59.0288 222.702 60.7555C222.695 61.1887 222.783 61.6029 222.948 61.9806C222.792 61.7917 222.549 61.6676 222.274 61.6632C221.796 61.6552 221.402 62.0123 221.395 62.4585C221.391 62.6853 221.489 62.8923 221.648 63.0421L221.547 63.1248C221.261 62.9591 220.926 62.8605 220.567 62.8548C219.506 62.8379 218.633 63.6276 218.618 64.6184C218.61 65.1261 218.829 65.5889 219.187 65.9208C219.022 65.8949 218.85 65.8786 218.675 65.8758C216.997 65.849 215.618 66.9718 215.595 68.3817C215.573 69.7921 216.915 70.9587 218.594 70.9855C218.863 70.9895 219.126 70.9642 219.376 70.9132C219.489 72.0588 220.621 72.9714 222.016 72.9937C222.649 73.0038 223.234 72.8286 223.698 72.528C224.572 72.7768 225.132 73.4347 225.471 74.378C226.74 78.754 225.946 80.9446 225.127 83.1092L229.571 82.6769ZM227.531 72.6321C227.44 73.0844 227.399 73.5469 226.974 73.685C226.046 73.7759 225.612 73.2626 225.375 72.4826C225.89 72.5765 226.426 72.6303 226.977 72.6391C227.163 72.6421 227.347 72.6394 227.531 72.6321Z" fill="white"/>
<path fill-rule="evenodd" clip-rule="evenodd" d="M135.06 93.1164C211.66 151.285 234.52 16.0125 292.378 66.2635C249.344 34.4788 220.564 166.045 135.06 93.1164Z" fill="#009EE0"/>
<path fill-rule="evenodd" clip-rule="evenodd" d="M215.831 82.5433C215.266 82.264 214.886 80.3991 215.03 78.1618C215.194 77.6795 215.476 77.2343 215.876 76.8249C215.991 76.7936 216.103 76.7587 216.212 76.7198C216.42 76.8182 216.66 76.8755 216.915 76.8796C217.262 76.8856 217.583 76.7905 217.838 76.6263C218.1 77.113 218.636 77.4513 219.26 77.4612C220.154 77.4755 220.889 76.8104 220.903 75.9765C220.916 75.1424 220.202 74.4542 219.308 74.4399C219.19 74.4379 219.073 74.4479 218.961 74.4693C219.433 74.244 219.76 73.7885 219.768 73.2591C219.781 72.4943 219.127 71.8631 218.307 71.85C218.085 71.846 217.872 71.8895 217.682 71.9685C217.584 71.8736 217.479 71.7833 217.367 71.6975C217.36 71.2171 216.944 70.8248 216.426 70.8165C216.227 70.8135 216.04 70.8679 215.885 70.9629C215.818 70.9435 215.75 70.9252 215.682 70.9087C215.716 70.7816 215.736 70.6488 215.738 70.5121C215.753 69.5598 214.938 68.7744 213.918 68.7581C212.898 68.7418 212.059 69.5009 212.043 70.4532C212.039 70.6921 212.088 70.9205 212.179 71.1288C212.093 71.0247 211.959 70.9562 211.807 70.9538C211.544 70.9498 211.326 71.1463 211.322 71.3924C211.32 71.5175 211.374 71.6317 211.462 71.7143L211.406 71.7599C211.249 71.6685 211.064 71.6141 210.865 71.611C210.281 71.602 209.799 72.0372 209.791 72.5836C209.786 72.8636 209.907 73.1189 210.105 73.302C210.013 73.2876 209.919 73.2787 209.822 73.2771C208.897 73.2624 208.136 73.8816 208.124 74.6592C208.111 75.4371 208.852 76.0805 209.777 76.0953C209.926 76.0973 210.071 76.0835 210.209 76.0554C210.271 76.6872 210.896 77.1905 211.665 77.2028C212.014 77.2088 212.336 77.1118 212.592 76.946C213.075 77.0832 213.384 77.4461 213.571 77.9663C214.27 80.3798 213.832 81.5879 213.381 82.7818L215.831 82.5433ZM214.707 77.0034C214.657 77.2529 214.634 77.5079 214.399 77.5841C213.887 77.6342 213.648 77.3511 213.517 76.9209C213.802 76.9727 214.097 77.0024 214.401 77.0072C214.504 77.0092 214.605 77.0076 214.707 77.0034Z" fill="white"/>
<path fill-rule="evenodd" clip-rule="evenodd" d="M365.269 129.966V139.529H86.9683V129.966H365.269Z" fill="#22A42D"/>
<path fill-rule="evenodd" clip-rule="evenodd" d="M389.326 149.151V212.967H379.762V149.151H389.326Z" fill="#22A42D"/>
<path fill-rule="evenodd" clip-rule="evenodd" d="M355.686 181.01C355.686 174.437 353.349 168.813 348.677 164.18C344.004 159.507 338.341 157.171 331.728 157.171C325.154 157.171 319.531 159.507 314.858 164.18C310.186 168.813 307.829 174.456 307.829 181.07C307.829 187.683 310.186 193.326 314.858 197.999C319.531 202.671 325.154 205.027 331.728 205.027C338.341 205.027 344.004 202.671 348.677 197.999C353.349 193.326 355.686 187.702 355.686 181.129V181.01ZM355.686 201.78C350.122 210.314 342.143 214.591 331.728 214.591C322.501 214.591 314.601 211.304 308.067 204.73C301.533 198.196 298.266 190.296 298.266 181.07C298.266 171.823 301.533 163.923 308.067 157.389C314.601 150.855 322.501 147.588 331.728 147.588C342.143 147.588 350.122 151.865 355.686 160.418V149.152H365.269V212.967H355.686V201.78Z" fill="#22A42D"/>
<path fill-rule="evenodd" clip-rule="evenodd" d="M279.535 163.665C275.556 159.29 270.447 157.112 264.23 157.112C257.993 157.112 252.885 159.29 248.845 163.665C244.668 168.18 242.589 173.961 242.589 181.01V212.967H233.025V149.152H242.589V158.379C247.816 151.152 255.023 147.528 264.23 147.528C273.239 147.528 280.704 150.736 286.624 157.171C288.94 159.686 290.802 162.438 292.188 165.467L283.832 170.278C282.783 167.843 281.357 165.625 279.535 163.665Z" fill="#22A42D"/>
<path fill-rule="evenodd" clip-rule="evenodd" d="M165.151 158.913C170.913 151.37 178.516 147.588 187.941 147.588C197.029 147.588 204.692 150.815 210.909 157.27C217.146 163.784 220.254 171.704 220.254 181.07V212.967H210.691V181.07C210.691 174.258 208.473 168.556 204.078 163.943C199.742 159.428 194.376 157.171 187.941 157.171C181.526 157.171 176.14 159.428 171.764 163.943C167.349 168.556 165.151 174.258 165.151 181.07V212.967H155.588V149.152H165.151V158.913Z" fill="#22A42D"/>
<path fill-rule="evenodd" clip-rule="evenodd" d="M132.085 181.01C132.085 174.437 129.749 168.813 125.076 164.18C120.403 159.507 114.741 157.171 108.127 157.171C101.554 157.171 95.9306 159.507 91.2579 164.18C86.585 168.813 84.229 174.456 84.229 181.07C84.229 187.683 86.585 193.326 91.2579 197.999C95.9306 202.671 101.554 205.027 108.127 205.027C114.741 205.027 120.403 202.671 125.076 197.999C129.749 193.326 132.085 187.702 132.085 181.129V181.01ZM132.085 201.78C126.522 210.314 118.542 214.591 108.127 214.591C98.9006 214.591 91.0005 211.304 84.4665 204.73C77.9325 198.196 74.6655 190.296 74.6655 181.07C74.6655 171.823 77.9325 163.923 84.4665 157.389C91.0005 150.855 98.9006 147.588 108.127 147.588C118.542 147.588 126.522 151.865 132.085 160.418V149.152H141.669V212.967H132.085V201.78Z" fill="#22A42D"/>
<path fill-rule="evenodd" clip-rule="evenodd" d="M10.395 129.966L37.5406 193.702L64.6863 129.966H75.0615L37.5406 218.076L0 129.966H10.395Z" fill="#22A42D"/>
<path fill-rule="evenodd" clip-rule="evenodd" d="M384.544 128.291C386.256 128.291 387.899 128.971 389.11 130.182C390.32 131.393 391.001 133.035 391.001 134.747C391.001 136.024 390.622 137.273 389.913 138.334C389.203 139.396 388.195 140.224 387.015 140.713C385.835 141.201 384.537 141.329 383.285 141.08C382.032 140.831 380.882 140.216 379.979 139.313C379.076 138.41 378.461 137.26 378.212 136.007C377.963 134.755 378.09 133.457 378.579 132.277C379.068 131.097 379.895 130.089 380.957 129.379C382.019 128.67 383.267 128.291 384.544 128.291Z" fill="#E30016" stroke="#E30016" stroke-width="0.216"/>
<path fill-rule="evenodd" clip-rule="evenodd" d="M198.074 12.8001L200.881 19.3915L203.689 12.8C206.106 10.5305 208.497 12.984 209.681 14.177C207.362 12.3931 205.853 13.2424 204.836 14.0105L200.881 23.6784L196.832 13.8891C196.135 12.6781 195.055 13.1989 193.329 14.4254C194.819 12.8826 195.838 10.439 198.074 12.8001Z" fill="#000200"/>
<path fill-rule="evenodd" clip-rule="evenodd" d="M209.576 18.6206L211.552 23.2592L213.528 18.6205C215.229 17.0234 216.911 18.75 217.745 19.5895C216.113 18.3341 215.051 18.9318 214.335 19.4723L211.552 26.276L208.702 19.3869C208.212 18.5347 207.452 18.9012 206.237 19.7643C207.286 18.6786 208.003 16.959 209.576 18.6206Z" fill="#000200"/>
<path fill-rule="evenodd" clip-rule="evenodd" d="M77.7551 277.111C77.2426 277.111 76.4484 277.068 75.3768 276.986C74.3337 276.908 73.5429 276.872 72.9985 276.879H72.2577C72.2791 277.84 72.3754 279.396 72.5389 281.554C72.6919 283.562 72.7706 285.125 72.7706 286.236C72.7706 286.482 72.7954 286.848 72.8416 287.344C72.8917 287.835 72.9165 288.209 72.9165 288.458C72.9165 288.932 72.8383 289.337 72.6848 289.679C72.4927 290.139 72.19 290.367 71.7805 290.367C71.4992 290.367 71.2499 290.27 71.0292 290.074C70.8051 289.882 70.6945 289.63 70.6945 289.323C70.6945 289.22 70.7126 289.063 70.7446 288.857C70.7803 288.647 70.798 288.49 70.798 288.387C70.798 288.045 70.7765 287.536 70.7303 286.852C70.684 286.172 70.6626 285.656 70.6626 285.311C70.6626 284.313 70.5844 282.918 70.4242 281.116C70.2569 279.169 70.1606 277.769 70.143 276.922L69.1919 276.932C67.6684 276.932 66.4718 276.822 65.6032 276.598C65.0407 276.452 64.759 276.11 64.759 275.565C64.759 275.281 64.8481 275.031 65.0298 274.814C65.24 274.572 65.507 274.462 65.8345 274.483C66.0766 274.493 66.632 274.557 67.501 274.668C68.1989 274.753 68.7615 274.792 69.1919 274.792C69.6086 274.792 70.2426 274.785 71.0897 274.768C71.9373 274.75 72.5709 274.743 72.9875 274.743C73.5252 274.743 74.3194 274.782 75.3734 274.857C76.427 274.932 77.2212 274.971 77.7551 274.971C78.0545 274.971 78.3071 275.074 78.5064 275.281C78.7095 275.483 78.8091 275.74 78.8091 276.046C78.8091 276.345 78.7095 276.598 78.5064 276.801C78.3071 277.007 78.0545 277.111 77.7551 277.111ZM88.2485 290.932C87.757 290.932 87.4328 290.665 87.2798 290.139C87.1196 289.569 86.9737 288.757 86.8422 287.706C86.7173 286.699 86.6534 285.873 86.6534 285.225C86.6534 285.044 86.6639 284.769 86.6782 284.402C86.6958 284.032 86.7068 283.758 86.7068 283.576C86.7068 282.27 86.3793 281.615 85.7238 281.615C84.8409 281.615 84.0539 282.017 83.356 282.814C83.0037 283.227 82.516 284.007 81.8963 285.165C81.8963 287.814 81.7862 289.38 81.5616 289.868C81.3695 290.299 81.0668 290.512 80.6573 290.512C80.3689 290.512 80.1196 290.416 79.906 290.221C79.6886 290.028 79.5819 289.79 79.5819 289.512C79.5819 289.416 79.6143 289.262 79.6748 289.053C79.7315 288.878 79.7706 288.372 79.7887 287.532L79.8207 285.987L79.8526 278.321C79.9027 277.456 79.9237 276.876 79.9237 276.576C79.9237 276.224 79.8917 275.889 79.8278 275.572C79.7601 275.255 79.7282 274.928 79.7282 274.586C79.7282 274.294 79.8278 274.052 80.0304 273.86C80.2302 273.667 80.4795 273.575 80.7713 273.575C81.3409 273.575 81.6756 273.881 81.7719 274.49C81.882 275.167 81.9392 275.775 81.9392 276.316C81.9392 277.046 81.9144 277.809 81.8643 278.602C81.8253 279.361 81.8071 280.119 81.8143 280.885L81.8253 281.803C82.3949 281.038 83.0037 280.468 83.6554 280.087C84.3032 279.71 84.994 279.521 85.7238 279.521C86.8813 279.521 87.6716 279.895 88.1026 280.646C88.4086 281.173 88.5831 282.063 88.626 283.316L88.7075 285.311L88.9178 287.479C89.0141 288.29 89.1313 289.01 89.2701 289.626C89.2987 289.747 89.313 289.846 89.313 289.928C89.313 290.213 89.21 290.452 88.9998 290.644C88.7933 290.837 88.5402 290.932 88.2485 290.932ZM96.7296 290.765C95.1598 290.765 93.8884 290.37 92.9131 289.587C91.8481 288.718 91.318 287.5 91.318 285.934C91.318 284.125 91.7556 282.611 92.6318 281.387C93.5857 280.051 94.8571 279.382 96.4484 279.382C97.6058 279.382 98.5459 279.578 99.2758 279.969C100.173 280.447 100.622 281.184 100.622 282.181C100.622 282.875 100.23 283.509 99.4431 284.079C99.0941 284.328 98.3571 284.719 97.2321 285.246L93.2477 287.133C93.6358 287.71 94.1201 288.145 94.7041 288.437C95.2842 288.729 95.9607 288.874 96.7296 288.874C97.2106 288.874 97.7732 288.786 98.421 288.604C99.24 288.376 99.7706 288.074 100.006 287.703C100.244 287.329 100.497 287.144 100.767 287.144C101.013 287.144 101.23 287.237 101.419 287.422C101.611 287.607 101.708 287.82 101.708 288.063C101.708 288.835 101.084 289.497 99.8383 290.057C98.7771 290.527 97.7412 290.765 96.7296 290.765ZM96.4484 281.262C95.6013 281.262 94.8962 281.59 94.3337 282.248C93.7674 282.904 93.3474 283.893 93.0694 285.214L96.2706 283.69C97.531 283.081 98.4282 282.547 98.9626 282.095C98.3643 281.54 97.5277 281.262 96.4484 281.262ZM120.244 290.398C119.981 290.398 119.731 290.288 119.504 290.064C117.2 287.792 114.643 286.261 111.827 285.474L111.909 287.521L111.962 289.576C111.962 289.882 111.862 290.135 111.663 290.342C111.467 290.548 111.218 290.651 110.919 290.651C110.62 290.651 110.371 290.548 110.171 290.342C109.976 290.135 109.876 289.882 109.876 289.576C109.876 289.024 109.847 288.205 109.797 287.119C109.744 286.03 109.719 285.211 109.719 284.662C109.719 284.021 109.787 283.071 109.926 281.803C110.064 280.539 110.136 279.589 110.136 278.955C110.136 278.602 110.104 278.075 110.036 277.381C109.972 276.687 109.936 276.16 109.936 275.807C109.936 275.409 110.05 275.063 110.271 274.764C110.534 274.394 110.901 274.226 111.368 274.262L113.881 274.462C114.832 274.579 115.637 274.81 116.288 275.159C119.105 276.655 120.515 278.481 120.515 280.635C120.515 281.693 120.034 282.629 119.076 283.441C118.304 284.096 117.339 284.591 116.185 284.933C118.35 286.094 119.967 287.318 121.034 288.604C121.216 288.828 121.308 289.063 121.308 289.316C121.308 289.608 121.202 289.861 120.988 290.074C120.778 290.292 120.529 290.398 120.244 290.398ZM113.6 276.609L112.055 276.484L112.158 277.748C112.208 278.26 112.233 278.681 112.233 279.008C112.233 279.564 112.187 280.258 112.097 281.084L111.877 283.16C111.976 283.16 112.126 283.163 112.332 283.171C112.536 283.178 112.692 283.181 112.795 283.181C114.569 283.181 115.897 282.943 116.78 282.473C117.171 282.255 117.531 281.974 117.866 281.625C118.232 281.237 118.418 280.906 118.418 280.635C118.418 279.671 117.869 278.77 116.769 277.933C115.761 277.167 114.704 276.726 113.6 276.609ZM128.245 290.765C126.675 290.765 125.403 290.37 124.428 289.587C123.363 288.718 122.833 287.5 122.833 285.934C122.833 284.125 123.271 282.611 124.147 281.387C125.101 280.051 126.372 279.382 127.963 279.382C129.121 279.382 130.061 279.578 130.791 279.969C131.688 280.447 132.136 281.184 132.136 282.181C132.136 282.875 131.745 283.509 130.958 284.079C130.609 284.328 129.872 284.719 128.747 285.246L124.763 287.133C125.151 287.71 125.635 288.145 126.219 288.437C126.799 288.729 127.476 288.874 128.245 288.874C128.726 288.874 129.288 288.786 129.936 288.604C130.755 288.376 131.286 288.074 131.521 287.703C131.759 287.329 132.012 287.144 132.282 287.144C132.528 287.144 132.745 287.237 132.934 287.422C133.126 287.607 133.222 287.82 133.222 288.063C133.222 288.835 132.599 289.497 131.353 290.057C130.292 290.527 129.256 290.765 128.245 290.765ZM127.963 281.262C127.116 281.262 126.411 281.59 125.849 282.248C125.282 282.904 124.862 283.893 124.584 285.214L127.786 283.69C129.046 283.081 129.943 282.547 130.478 282.095C129.879 281.54 129.043 281.262 127.963 281.262ZM142.121 282.252C141.736 282.252 141.469 282.124 141.316 281.867C141.213 281.686 141.12 281.309 141.045 280.739C140.525 280.87 139.72 281.116 138.635 281.469C137.517 281.913 136.954 282.465 136.947 283.117C137.153 283.195 137.36 283.249 137.563 283.284C139.162 283.569 140.351 283.965 141.127 284.463C142.263 285.193 142.829 286.251 142.829 287.635C142.829 288.768 142.338 289.622 141.358 290.203C140.543 290.673 139.514 290.911 138.272 290.911C137.36 290.911 136.491 290.758 135.662 290.452C134.593 290.06 134.056 289.519 134.056 288.825C134.056 288.547 134.166 288.301 134.383 288.095C134.604 287.885 134.853 287.781 135.131 287.781C135.345 287.781 135.626 287.949 135.964 288.28C136.132 288.44 136.509 288.576 137.093 288.678C137.56 288.76 137.951 288.803 138.272 288.803C138.855 288.803 139.368 288.732 139.813 288.593C140.461 288.394 140.785 288.074 140.785 287.635C140.785 286.688 140.123 286.051 138.802 285.716L137.716 285.474C136.794 285.275 136.135 285.036 135.747 284.766C135.185 284.378 134.899 283.79 134.899 283.003C134.899 281.551 135.587 280.514 136.958 279.895C137.374 279.706 138.04 279.482 138.959 279.222C139.877 278.962 140.532 278.741 140.931 278.56C141.216 278.435 141.526 278.371 141.86 278.371C142.16 278.371 142.402 278.471 142.594 278.663C142.786 278.859 142.882 279.111 142.882 279.425C142.882 279.628 142.925 279.923 143.011 280.311C143.1 280.703 143.142 280.999 143.142 281.198C143.142 281.511 143.046 281.764 142.854 281.96C142.665 282.156 142.42 282.252 142.121 282.252ZM149.391 290.9C148.223 290.9 147.219 290.469 146.375 289.608C145.439 288.647 144.944 287.358 144.894 285.738C144.851 284.164 145.25 282.783 146.084 281.586C147.059 280.173 148.412 279.467 150.153 279.467C151.542 279.467 152.595 280.105 153.312 281.376C153.885 282.405 154.159 283.644 154.137 285.09C154.116 286.635 153.714 287.952 152.927 289.042C152.037 290.281 150.858 290.9 149.391 290.9ZM150.018 281.586C148.996 281.579 148.198 282.063 147.629 283.046C147.177 283.829 146.949 284.727 146.949 285.738C146.949 286.745 147.223 287.532 147.775 288.095C148.234 288.561 148.772 288.792 149.391 288.792C150.114 288.792 150.737 288.529 151.257 287.999C151.848 287.415 152.161 286.628 152.197 285.631C152.293 282.939 151.567 281.593 150.018 281.586ZM164.83 282.576C164.78 283.445 164.431 283.879 163.787 283.879C163.188 283.879 162.89 283.534 162.89 282.846C162.89 282.715 162.879 282.473 162.857 282.117L162.825 281.241C161.725 281.372 160.845 281.682 160.187 282.17C159.567 282.622 159.051 283.302 158.642 284.214L158.663 289.928C158.663 290.633 158.317 290.982 157.631 290.982C157.018 290.982 156.712 290.633 156.712 289.928V282.608C156.712 282.376 156.722 282.035 156.74 281.576C156.755 281.116 156.765 280.771 156.765 280.543C156.765 279.838 157.071 279.489 157.684 279.489C158.364 279.489 158.709 280.066 158.716 281.219C160.052 279.934 161.533 279.29 163.16 279.29C163.722 279.29 164.143 279.503 164.42 279.927C164.698 280.35 164.837 280.992 164.837 281.846C164.837 282.206 164.834 282.451 164.83 282.576ZM173.955 281.397C173.81 281.397 173.638 281.39 173.439 281.376C173.243 281.362 173.069 281.355 172.923 281.355C172.763 281.355 172.289 281.408 171.506 281.511L171.702 287.678L171.713 288.134L171.723 288.668C171.752 290.192 171.388 290.951 170.63 290.951C170.352 290.951 170.11 290.861 169.903 290.68C169.697 290.502 169.597 290.274 169.597 290.003C169.597 289.74 169.608 289.341 169.626 288.814C169.647 288.283 169.658 287.888 169.658 287.625L169.452 281.533C168.942 281.511 168.17 281.454 167.134 281.355C166.514 281.273 166.204 280.927 166.204 280.322C166.204 280.016 166.3 279.763 166.489 279.56C166.674 279.361 166.916 279.258 167.208 279.258L169.398 279.436C169.398 279.083 169.384 278.606 169.352 278.011C169.319 277.417 169.306 276.99 169.306 276.723C169.306 276.43 169.405 276.192 169.608 275.999C169.808 275.807 170.053 275.711 170.349 275.711C170.972 275.711 171.338 276.224 171.442 277.246C171.463 277.502 171.474 277.812 171.474 278.175L171.452 278.781L171.442 279.425C172.304 279.314 172.799 279.258 172.923 279.258C173.646 279.258 174.119 279.293 174.344 279.364C174.767 279.503 174.978 279.827 174.978 280.344C174.978 280.65 174.881 280.902 174.692 281.098C174.5 281.298 174.255 281.397 173.955 281.397ZM184.762 291.253C184.402 291.253 184.096 291.128 183.843 290.879C183.594 290.63 183.47 290.324 183.47 289.96C183.47 289.608 183.594 289.302 183.843 289.049C184.096 288.796 184.402 288.668 184.762 288.668C185.118 288.668 185.421 288.796 185.677 289.049C185.93 289.302 186.058 289.608 186.058 289.96C186.058 290.324 185.93 290.63 185.677 290.879C185.421 291.128 185.118 291.253 184.762 291.253ZM190.082 291.253C189.722 291.253 189.416 291.128 189.163 290.879C188.914 290.63 188.789 290.324 188.789 289.96C188.789 289.608 188.914 289.302 189.163 289.049C189.416 288.796 189.722 288.668 190.082 288.668C190.438 288.668 190.74 288.796 190.996 289.049C191.25 289.302 191.377 289.608 191.377 289.96C191.377 290.324 191.25 290.63 190.996 290.879C190.74 291.128 190.438 291.253 190.082 291.253ZM195.401 291.253C195.041 291.253 194.735 291.128 194.483 290.879C194.233 290.63 194.109 290.324 194.109 289.96C194.109 289.608 194.233 289.302 194.483 289.049C194.735 288.796 195.041 288.668 195.401 288.668C195.757 288.668 196.06 288.796 196.316 289.049C196.569 289.302 196.697 289.608 196.697 289.96C196.697 290.324 196.569 290.63 196.316 290.879C196.06 291.128 195.757 291.253 195.401 291.253ZM215.857 276.576C215.732 276.576 215.601 276.551 215.462 276.495C214.6 276.174 213.457 276.014 212.04 276.014C211.58 276.014 211.043 276.046 210.427 276.113C209.811 276.181 209.124 276.281 208.358 276.42L208.337 280.927C209.679 280.572 210.687 280.397 211.364 280.397C212.431 280.397 213.543 280.458 214.689 280.582C215.344 280.653 215.672 281.009 215.672 281.647C215.672 281.96 215.569 282.22 215.369 282.423C215.166 282.629 214.917 282.732 214.618 282.732C214.255 282.732 213.713 282.701 212.991 282.64C212.264 282.576 211.723 282.544 211.364 282.544C210.89 282.544 209.868 282.747 208.294 283.149L208.201 290.327C208.201 290.626 208.106 290.879 207.91 291.082C207.714 291.288 207.468 291.392 207.169 291.392C206.87 291.392 206.621 291.288 206.421 291.082C206.226 290.879 206.126 290.626 206.126 290.327C206.126 288.956 206.151 286.898 206.204 284.157C206.254 281.411 206.282 279.357 206.282 277.986C206.282 277.68 206.275 277.221 206.265 276.605C206.254 275.989 206.25 275.526 206.25 275.223C206.25 274.917 206.347 274.657 206.539 274.451C206.727 274.241 206.977 274.137 207.283 274.137C207.511 274.137 207.717 274.198 207.899 274.326C208.761 274.173 209.537 274.059 210.224 273.984C210.915 273.913 211.517 273.878 212.04 273.878C212.841 273.878 213.752 273.991 214.782 274.219C216.181 274.54 216.879 274.956 216.879 275.473C216.879 275.751 216.789 275.996 216.608 276.213C216.409 276.455 216.156 276.576 215.857 276.576ZM227.25 284.193C227.25 284.695 227.254 285.446 227.261 286.446C227.268 287.447 227.272 288.198 227.272 288.7C227.272 288.853 227.282 289.085 227.308 289.398C227.332 289.711 227.343 289.943 227.343 290.096C227.343 290.395 227.243 290.641 227.041 290.833C226.841 291.025 226.592 291.118 226.3 291.118C225.766 291.118 225.424 290.79 225.278 290.128C224.409 290.58 223.409 290.804 222.273 290.804C221.365 290.804 220.61 290.605 220.012 290.203C219.35 289.758 218.958 289.106 218.834 288.251C218.559 286.407 218.424 284.766 218.424 283.327C218.424 282.373 218.531 281.29 218.737 280.073C218.837 279.467 219.164 279.165 219.731 279.165C220.03 279.165 220.279 279.261 220.478 279.453C220.681 279.642 220.781 279.888 220.781 280.187C220.781 280.507 220.731 281.016 220.631 281.721C220.532 282.423 220.478 282.957 220.478 283.327C220.478 284.488 220.517 285.481 220.596 286.311C220.671 287.137 220.785 287.803 220.938 288.301C221.169 288.43 221.394 288.522 221.618 288.59C221.838 288.654 222.059 288.689 222.273 288.689C223.205 288.689 224.188 288.54 225.228 288.241L225.217 286.122L225.196 284.1C225.196 282.597 225.26 281.294 225.392 280.187C225.47 279.546 225.808 279.229 226.407 279.229C226.706 279.229 226.955 279.325 227.155 279.521C227.357 279.713 227.453 279.959 227.439 280.251L227.25 284.193ZM237.847 291.025C237.248 291.025 236.914 290.697 236.836 290.046L236.543 287.76C236.447 286.945 236.398 286.186 236.398 285.474C236.398 285.282 236.408 284.951 236.433 284.484C236.458 284.018 236.472 283.687 236.472 283.495C236.472 281.992 236.191 281.241 235.635 281.241C234.856 281.241 234.112 281.704 233.403 282.629C232.765 283.469 232.263 284.534 231.9 285.82C231.886 286.09 231.858 286.432 231.808 286.841C231.765 287.19 231.744 287.529 231.744 287.853C231.744 288.063 231.765 288.376 231.808 288.792C231.851 289.209 231.872 289.523 231.872 289.732C231.872 290.046 231.776 290.299 231.584 290.495C231.391 290.687 231.146 290.786 230.847 290.786C230.544 290.786 230.295 290.687 230.106 290.495C229.921 290.299 229.825 290.046 229.825 289.732C229.825 289.523 229.803 289.209 229.757 288.792C229.715 288.376 229.689 288.063 229.689 287.853C229.689 287.137 229.739 286.144 229.842 284.876C229.942 283.609 229.992 282.615 229.992 281.9C229.992 281.675 229.981 281.344 229.956 280.906C229.931 280.468 229.921 280.137 229.921 279.916C229.921 279.617 230.021 279.372 230.216 279.179C230.416 278.99 230.661 278.894 230.953 278.894C231.591 278.894 231.943 279.346 232.007 280.251L232.036 281.469C233.207 279.913 234.407 279.133 235.635 279.133C236.75 279.133 237.523 279.624 237.964 280.603C238.263 281.258 238.424 282.223 238.452 283.505V284.559L238.441 285.527C238.441 286.104 238.516 286.852 238.666 287.764C238.815 288.678 238.89 289.423 238.89 289.993C238.89 290.299 238.79 290.548 238.594 290.737C238.395 290.929 238.146 291.025 237.847 291.025ZM254.204 290.701C252.043 290.701 250.43 290.078 249.365 288.835C248.503 287.835 247.962 286.35 247.738 284.392C247.635 283.509 247.581 281.746 247.581 279.101C247.581 278.129 247.603 277.342 247.645 276.744C247.685 276.113 247.748 275.669 247.83 275.419C248.005 274.913 248.318 274.657 248.771 274.657C249.411 274.657 249.732 275.245 249.732 276.42V282.544C249.732 286.76 251.206 288.867 254.154 288.867C256.928 288.867 258.316 285.318 258.316 278.225C258.316 277.962 258.316 277.62 258.316 277.203C258.309 276.786 258.306 276.509 258.306 276.37C258.306 275.939 258.38 275.558 258.534 275.23C258.729 274.814 259.017 274.607 259.399 274.607C260.096 274.607 260.442 275.081 260.442 276.035C260.442 276.32 260.445 276.751 260.452 277.328C260.452 277.904 260.452 278.339 260.452 278.624C260.452 286.674 258.37 290.701 254.204 290.701ZM271.155 291.025C270.557 291.025 270.223 290.697 270.144 290.046L269.852 287.76C269.756 286.945 269.706 286.186 269.706 285.474C269.706 285.282 269.717 284.951 269.742 284.484C269.767 284.018 269.781 283.687 269.781 283.495C269.781 281.992 269.5 281.241 268.944 281.241C268.165 281.241 267.42 281.704 266.712 282.629C266.074 283.469 265.572 284.534 265.209 285.82C265.195 286.09 265.167 286.432 265.117 286.841C265.074 287.19 265.053 287.529 265.053 287.853C265.053 288.063 265.074 288.376 265.117 288.792C265.159 289.209 265.181 289.523 265.181 289.732C265.181 290.046 265.085 290.299 264.892 290.495C264.7 290.687 264.454 290.786 264.155 290.786C263.853 290.786 263.603 290.687 263.415 290.495C263.23 290.299 263.133 290.046 263.133 289.732C263.133 289.523 263.112 289.209 263.066 288.792C263.023 288.376 262.998 288.063 262.998 287.853C262.998 287.137 263.048 286.144 263.151 284.876C263.251 283.609 263.301 282.615 263.301 281.9C263.301 281.675 263.29 281.344 263.265 280.906C263.24 280.468 263.23 280.137 263.23 279.916C263.23 279.617 263.329 279.372 263.525 279.179C263.725 278.99 263.97 278.894 264.262 278.894C264.9 278.894 265.252 279.346 265.316 280.251L265.344 281.469C266.516 279.913 267.716 279.133 268.944 279.133C270.059 279.133 270.831 279.624 271.273 280.603C271.572 281.258 271.732 282.223 271.76 283.505V284.559L271.75 285.527C271.75 286.104 271.825 286.852 271.974 287.764C272.124 288.678 272.199 289.423 272.199 289.993C272.199 290.299 272.099 290.548 271.903 290.737C271.704 290.929 271.454 291.025 271.155 291.025ZM276.988 282.085L276.831 287.269C276.831 287.82 276.806 288.625 276.749 289.69C276.678 290.384 276.339 290.733 275.727 290.733C275.044 290.733 274.705 290.377 274.705 289.669C274.705 288.828 274.744 287.564 274.819 285.876C274.894 284.193 274.933 282.928 274.933 282.085C274.933 280.988 274.951 279.731 274.986 278.314C275.022 276.9 275.04 275.643 275.04 274.544C275.04 273.849 275.378 273.5 276.062 273.5C276.749 273.5 277.094 273.849 277.094 274.544C277.094 275.643 277.077 276.9 277.041 278.314C277.005 279.731 276.988 280.988 276.988 282.085ZM282.186 277.078C281.851 277.078 281.563 276.961 281.321 276.723C281.075 276.488 280.954 276.202 280.954 275.868C280.954 275.533 281.075 275.248 281.321 275.013C281.563 274.779 281.851 274.657 282.186 274.657C282.521 274.657 282.805 274.779 283.048 275.013C283.286 275.248 283.407 275.533 283.407 275.868C283.407 276.202 283.286 276.488 283.048 276.723C282.805 276.961 282.521 277.078 282.186 277.078ZM282.656 285.549C282.656 285.966 282.667 286.589 282.691 287.422C282.716 288.251 282.727 288.874 282.727 289.295C282.727 289.601 282.635 289.85 282.446 290.046C282.257 290.238 282.012 290.338 281.705 290.338C281.406 290.338 281.16 290.238 280.968 290.046C280.779 289.85 280.684 289.601 280.684 289.295C280.684 288.874 280.673 288.251 280.648 287.422C280.623 286.589 280.609 285.966 280.609 285.549C280.609 284.894 280.644 284.079 280.715 283.103C280.783 282.124 280.818 281.309 280.818 280.657C280.818 280.344 280.915 280.091 281.107 279.895C281.296 279.699 281.542 279.603 281.841 279.603C282.139 279.603 282.385 279.699 282.578 279.895C282.766 280.091 282.863 280.344 282.863 280.657C282.863 281.309 282.827 282.124 282.759 283.103C282.688 284.079 282.656 284.894 282.656 285.549ZM299.43 291.15C298.86 291.15 298.525 290.847 298.429 290.242C298.305 289.476 298.176 288.401 298.052 287.009L297.699 283.776C297.628 283.295 297.51 282.825 297.343 282.366C297.108 281.743 296.848 281.43 296.57 281.43C296.314 281.43 295.833 281.647 295.132 282.085C294.463 282.49 294.025 282.811 293.818 283.057C293.811 283.708 293.829 284.363 293.868 285.015L294.182 287.803C294.313 288.9 294.381 289.807 294.381 290.523C294.381 290.829 294.285 291.082 294.092 291.281C293.904 291.477 293.658 291.577 293.359 291.577C293.06 291.577 292.814 291.477 292.622 291.281C292.433 291.082 292.337 290.829 292.337 290.523C292.337 289.683 292.252 288.44 292.081 286.795C291.91 285.15 291.824 283.908 291.824 283.067C291.824 282.33 291.721 281.753 291.511 281.344C291.027 281.568 290.532 281.928 290.03 282.43L288.801 283.808C288.688 283.975 288.513 284.193 288.268 284.463C288.268 284.88 288.228 285.495 288.154 286.311C288.075 287.123 288.04 287.725 288.04 288.116C288.04 288.323 288.072 288.615 288.139 288.992C288.203 289.366 288.235 289.637 288.235 289.804C288.235 290.089 288.132 290.331 287.919 290.523C287.705 290.719 287.459 290.815 287.174 290.815C286.387 290.815 285.996 289.921 285.996 288.134C285.996 287.717 286.031 287.094 286.11 286.268C286.184 285.442 286.224 284.819 286.224 284.402C286.224 284.032 286.191 283.48 286.124 282.743C286.06 282.006 286.024 281.451 286.024 281.074C286.024 279.496 286.38 278.706 287.089 278.706C287.359 278.706 287.609 278.823 287.837 279.062C288.061 279.297 288.175 279.553 288.175 279.831C288.175 279.966 288.157 280.169 288.121 280.447C288.086 280.725 288.072 280.938 288.072 281.084L288.089 282.181C288.452 281.437 288.983 280.764 289.688 280.162C290.389 279.56 290.988 279.258 291.482 279.258C292.572 279.258 293.324 279.802 293.733 280.885C294.117 280.379 294.573 279.998 295.1 279.745C295.631 279.489 296.232 279.364 296.916 279.364C298.077 279.364 298.871 279.988 299.294 281.241C299.376 281.49 299.519 282.469 299.721 284.171C299.917 285.367 300.167 287.361 300.473 290.149C300.494 290.427 300.398 290.662 300.192 290.858C299.982 291.053 299.729 291.15 299.43 291.15ZM304.771 277.078C304.436 277.078 304.147 276.961 303.906 276.723C303.66 276.488 303.538 276.202 303.538 275.868C303.538 275.533 303.66 275.248 303.906 275.013C304.147 274.779 304.436 274.657 304.771 274.657C305.105 274.657 305.39 274.779 305.632 275.013C305.871 275.248 305.992 275.533 305.992 275.868C305.992 276.202 305.871 276.488 305.632 276.723C305.39 276.961 305.105 277.078 304.771 277.078ZM305.24 285.549C305.24 285.966 305.251 286.589 305.276 287.422C305.301 288.251 305.312 288.874 305.312 289.295C305.312 289.601 305.219 289.85 305.031 290.046C304.842 290.238 304.596 290.338 304.29 290.338C303.991 290.338 303.745 290.238 303.553 290.046C303.364 289.85 303.268 289.601 303.268 289.295C303.268 288.874 303.257 288.251 303.232 287.422C303.208 286.589 303.193 285.966 303.193 285.549C303.193 284.894 303.229 284.079 303.3 283.103C303.368 282.124 303.403 281.309 303.403 280.657C303.403 280.344 303.499 280.091 303.692 279.895C303.88 279.699 304.126 279.603 304.425 279.603C304.724 279.603 304.97 279.699 305.162 279.895C305.351 280.091 305.447 280.344 305.447 280.657C305.447 281.309 305.411 282.124 305.344 283.103C305.273 284.079 305.24 284.894 305.24 285.549Z" fill="#102A83"/>
<path fill-rule="evenodd" clip-rule="evenodd" d="M315.744 281.398C315.598 281.398 315.427 281.391 315.228 281.377C315.032 281.362 314.858 281.355 314.712 281.355C314.552 281.355 314.078 281.409 313.294 281.512L313.49 287.679L313.501 288.134L313.512 288.668C313.54 290.192 313.177 290.951 312.419 290.951C312.141 290.951 311.899 290.862 311.692 290.68C311.486 290.502 311.386 290.274 311.386 290.004C311.386 289.74 311.397 289.342 311.415 288.814C311.436 288.284 311.447 287.888 311.447 287.625L311.24 281.533C310.731 281.512 309.958 281.455 308.923 281.355C308.303 281.273 307.993 280.928 307.993 280.323C307.993 280.016 308.089 279.763 308.278 279.56C308.463 279.361 308.705 279.258 308.997 279.258L311.187 279.436C311.187 279.084 311.173 278.606 311.141 278.012C311.108 277.417 311.094 276.99 311.094 276.723C311.094 276.431 311.194 276.192 311.397 276C311.596 275.808 311.842 275.711 312.138 275.711C312.761 275.711 313.127 276.224 313.231 277.246C313.252 277.502 313.263 277.812 313.263 278.175L313.241 278.781L313.231 279.425C314.093 279.315 314.587 279.258 314.712 279.258C315.434 279.258 315.908 279.293 316.132 279.365C316.556 279.504 316.766 279.828 316.766 280.344C316.766 280.65 316.67 280.903 316.481 281.099C316.289 281.298 316.044 281.398 315.744 281.398ZM323.702 290.765C322.132 290.765 320.861 290.37 319.886 289.587C318.821 288.718 318.29 287.5 318.29 285.934C318.29 284.125 318.728 282.612 319.604 281.387C320.558 280.052 321.83 279.383 323.421 279.383C324.578 279.383 325.518 279.578 326.248 279.97C327.145 280.447 327.594 281.184 327.594 282.181C327.594 282.875 327.203 283.509 326.415 284.079C326.067 284.328 325.33 284.72 324.205 285.247L320.22 287.134C320.608 287.711 321.093 288.145 321.677 288.437C322.257 288.729 322.933 288.875 323.702 288.875C324.183 288.875 324.746 288.786 325.393 288.605C326.212 288.377 326.743 288.074 326.978 287.704C327.216 287.33 327.47 287.144 327.74 287.144C327.986 287.144 328.203 287.237 328.391 287.422C328.584 287.607 328.68 287.821 328.68 288.063C328.68 288.836 328.057 289.498 326.811 290.057C325.75 290.527 324.714 290.765 323.702 290.765ZM323.421 281.263C322.574 281.263 321.869 281.59 321.306 282.249C320.74 282.904 320.32 283.894 320.042 285.215L323.243 283.691C324.503 283.082 325.401 282.548 325.935 282.095C325.337 281.54 324.5 281.263 323.421 281.263ZM340.141 281.074C340.059 282.095 340.017 283.118 340.017 284.14C340.017 286.457 340.127 288.206 340.341 289.388C340.355 289.484 340.362 289.566 340.362 289.626C340.362 289.907 340.266 290.135 340.07 290.317C339.874 290.498 339.65 290.588 339.394 290.588C338.96 290.588 338.646 290.274 338.443 289.648C337.941 290.018 337.421 290.295 336.884 290.484C336.346 290.67 335.783 290.765 335.199 290.765C333.761 290.765 332.568 290.285 331.621 289.323C330.645 288.344 330.161 287.088 330.161 285.549C330.161 283.691 330.653 282.202 331.635 281.084C332.622 279.967 333.9 279.404 335.47 279.404C336.278 279.404 336.898 279.528 337.336 279.781L338.319 280.5C338.415 277.574 338.529 275.601 338.66 274.586C338.753 273.967 339.07 273.657 339.611 273.657C340.245 273.657 340.562 273.995 340.562 274.668C340.562 275.637 340.423 277.769 340.141 281.074ZM335.513 281.344C334.345 281.344 333.466 281.69 332.882 282.384C332.298 283.075 332.006 284.118 332.006 285.507C332.006 286.404 332.326 287.177 332.96 287.825C333.597 288.469 334.345 288.793 335.199 288.793C335.783 288.793 336.278 288.686 336.681 288.469C336.916 288.344 337.304 288.056 337.838 287.604C337.941 287.515 338.044 287.405 338.141 287.28L338.108 285.474L338.119 284.267L338.141 283.036C337.877 282.473 337.525 282.049 337.087 281.768C336.649 281.487 336.125 281.344 335.513 281.344Z" fill="#102A83"/>
</g>
<defs>
<linearGradient id="paint0_linear_2494_478" x1="127.897" y1="-5.17105e-06" x2="127.897" y2="103.894" gradientUnits="userSpaceOnUse">
<stop stop-color="#E30016"/>
<stop offset="1" stop-color="#FFEC00"/>
</linearGradient>
<clipPath id="clip0_2494_478">
<rect width="391.109" height="291.577" fill="white"/>
</clipPath>
</defs>
</svg>
